# xmcd
#
# Track frame offsets:
#	150
#	9103
#	20193
#	37272
#	47475
#	63820
#	79710
#	96072
#	105444
#	117120
#	129372
#	148208
#	162167
#	177438
#	189697
#	203139
#	214730
#
# Disc length: 3030 seconds
#
# Revision: 1
# Processed by: cddbd v1.4PL0 Copyright (c) Steve Scherf et al.
# Submitted via: audiograbber 1.81.03
#
DISCID=e40bd411
DTITLE=Flintlock - Potluck
DYEAR=2001
DGENRE=Bluegrass
TTITLE0=St.Luke
TTITLE1=Really Gonna Paint This Town
TTITLE2=Good Woman's Love
TTITLE3=Rattler
TTITLE4=Before I Met You
TTITLE5=Way Downtown
TTITLE6=Tennessee 1949
TTITLE7=Black Mountain Rag
TTITLE8=Tilly Brown
TTITLE9=Bootleg John
TTITLE10=Mama's House
TTITLE11=Gypsy Woman
TTITLE12=Take Me Back To Dixie
TTITLE13=In The Graveyard
TTITLE14=Corrina's Lullaby
TTITLE15=Throwin' Stones
TTITLE16=The Old Crossroads
EXTD=
EXTT0=
EXTT1=
EXTT2=
EXTT3=
EXTT4=
EXTT5=
EXTT6=
EXTT7=
EXTT8=
EXTT9=
EXTT10=
EXTT11=
EXTT12=
EXTT13=
EXTT14=
EXTT15=
EXTT16=
PLAYORDER=
